<svg xmlns="http://www.w3.org/2000/svg" viewBox="0 0 30.221 30.221" width="512" height="512"><path d="M25.534 14.457h-1.529V9.361c0-2.541-.965-4.871-2.555-6.572C19.864 1.09 17.602-.006 15.11 0c-2.494-.006-4.756 1.09-6.34 2.789C7.179 4.49 6.214 6.82 6.214 9.361v5.096H4.683c-.629 0-1.145.512-1.145 1.145v13.471c0 .637.516 1.148 1.145 1.148h20.852c.635 0 1.148-.512 1.148-1.148V15.602c0-.633-.514-1.145-1.149-1.145zM10.436 9.361c0-1.465.559-2.766 1.42-3.686.867-.922 2-1.453 3.254-1.453 1.252 0 2.385.531 3.25 1.453.865.92 1.42 2.221 1.42 3.686v5.096h-9.344V9.361z" fill="#FFF"/></svg>