<svg xmlns="http://www.w3.org/2000/svg" width="512" height="512" viewBox="0 0 347.182 347.182"><path fill="#fff" d="M210.13 0c-4.94 0-9.23 1.8-12.84 5.43l-95.1 95.07H27.4c-4.94 0-9.22 1.8-12.84 5.42-3.62 3.63-5.42 7.9-5.42 12.85V228.4c0 4.96 1.8 9.24 5.42 12.86 3.62 3.6 7.9 5.42 12.85 5.42h74.8l95.1 95.08c3.6 3.6 7.88 5.42 12.83 5.42s9.24-1.8 12.86-5.42c3.6-3.62 5.4-7.9 5.4-12.85V18.3c0-4.95-1.8-9.24-5.4-12.85C219.35 1.8 215.07 0 210.12 0zM325.9 133.04c-8.1-12.56-18.78-21.42-32.12-26.55-1.9-.96-4.27-1.44-7.13-1.44-4.95 0-9.23 1.76-12.84 5.28-3.6 3.52-5.42 7.85-5.42 13 0 4 1.14 7.37 3.43 10.13 2.3 2.76 5.04 5.14 8.3 7.14a147.44 147.44 0 0 1 9.7 6.57c3.23 2.38 6 5.76 8.27 10.14 2.28 4.4 3.43 9.8 3.43 16.28s-1.15 11.9-3.43 16.28c-2.28 4.38-5.04 7.76-8.28 10.14a148.94 148.94 0 0 1-9.7 6.57c-3.26 2-6 4.38-8.3 7.13-2.28 2.77-3.42 6.14-3.42 10.14 0 5.14 1.8 9.47 5.43 13 3.62 3.5 7.9 5.27 12.85 5.27 2.86 0 5.23-.46 7.13-1.4 13.34-5.34 24.03-14.24 32.12-26.7 8.1-12.48 12.15-25.93 12.15-40.4 0-14.48-4.06-28-12.15-40.56z"/></svg>