<svg xmlns="http://www.w3.org/2000/svg" viewBox="0 0 294.414 294.414" width="512" height="512"><g fill="#FFF"><path d="M147.207 43.115C91.6 43.115 39.32 64.771 0 104.092l16.971 16.971c34.787-34.788 81.04-53.947 130.236-53.947 49.197 0 95.449 19.159 130.236 53.947l16.971-16.971c-39.32-39.321-91.599-60.977-147.207-60.977z"/><path d="M44.812 148.903l16.971 16.971c22.817-22.818 53.154-35.385 85.425-35.385 32.269 0 62.607 12.566 85.425 35.385l16.971-16.971c-27.351-27.351-63.715-42.414-102.395-42.414s-75.047 15.062-102.397 42.414zm44.815 44.816l16.971 16.971c10.848-10.848 25.271-16.821 40.611-16.821 15.341 0 29.763 5.974 40.609 16.821l16.971-16.971c-15.38-15.38-35.829-23.851-57.58-23.851-21.752 0-42.201 8.471-57.582 23.851z"/><circle cx="147.208" cy="237.299" r="14.001"/></g></svg>