<svg xmlns="http://www.w3.org/2000/svg" viewBox="0 0 509.653 509.653" width="512" height="512"><circle cx="256" cy="414.663" r="42.667" fill="#fff"/><path d="M191.602 281.305a133.316 133.316 0 0 0-30.962 23.065h.213a132.928 132.928 0 0 0-23.04 30.933L166.4 363.89c19.098-48.955 74.266-73.158 123.221-54.059a95.145 95.145 0 0 1 54.059 54.059l28.587-28.587c-34.978-64.8-115.865-88.976-180.665-53.998z" fill="#fff"/><path d="M124.864 199.307a227.52 227.52 0 0 0-31.424 26.556 228.172 228.172 0 0 0-24.533 29.44l27.307 27.093c58.135-87.835 176.468-111.912 264.304-53.777a190.706 190.706 0 0 1 53.776 53.777L441.6 255.09c-72.06-102.869-213.868-127.844-316.736-55.783z" fill="#fff"/><path d="M57.31 120.23a322.313 322.313 0 0 0-31.283 27.766A324.967 324.967 0 0 0 0 176.796l27.307 27.307c93.852-125.635 271.781-151.401 397.416-57.549a284.003 284.003 0 0 1 32.664 28.535 285.674 285.674 0 0 1 24.96 29.013l27.307-27.307C400.362 36.265 197.841 10.939 57.31 120.23z" fill="#fff"/></svg>