<svg xmlns="http://www.w3.org/2000/svg" width="512" height="512" viewBox="0 0 305 305"><g fill="#fff"><path d="M40.74 112.12c-25.8 44.74-9.4 112.65 19.12 153.82C74.1 286.52 88.5 305 108.24 305c.37 0 .74 0 1.13-.02 9.27-.37 15.97-3.23 22.45-6 7.27-3.1 14.8-6.3 26.6-6.3 11.22 0 18.4 3.1 25.3 6.1 6.84 2.96 13.88 6.02 24.27 5.82 22.22-.4 35.87-20.35 47.9-37.94 12.58-18.36 18.88-36.2 21-43l.1-.28a2.5 2.5 0 0 0-1.33-3.06c-.03-.02-.15-.07-.18-.08-3.93-1.6-38.27-16.84-38.63-58.36-.34-33.74 25.76-51.6 31-54.84l.24-.15a2.5 2.5 0 0 0 .72-3.52C250.8 77 223.2 73.04 212.08 72.56a50.04 50.04 0 0 0-4.95-.24c-13.06 0-25.56 4.93-35.6 8.9-6.95 2.73-12.94 5.1-17.07 5.1-4.64 0-10.67-2.4-17.65-5.17-9.32-3.7-19.9-7.9-31.1-7.9-.25 0-.52 0-.78 0-26.03.4-50.62 15.3-64.18 38.87zM212.1 0c-15.76.64-34.67 10.35-45.97 23.58-9.6 11.13-19 29.68-16.52 48.38a2.5 2.5 0 0 0 2.3 2.17c1.06.08 2.15.12 3.23.12 15.4 0 32.04-8.52 43.4-22.25 11.94-14.5 18-33.1 16.16-49.77A2.52 2.52 0 0 0 212.1 0z"/></g></svg>