<svg xmlns="http://www.w3.org/2000/svg" width="512" height="512" viewBox="0 0 294.414 294.414"><g fill="#FFF"><path d="M147.2 43.12C91.6 43.12 39.33 64.77 0 104.1l16.97 16.96C51.77 86.28 98 67.12 147.2 67.12s95.46 19.15 130.24 53.94l16.97-16.97C255.1 64.76 202.83 43.1 147.2 43.1zM44.8 148.9l16.98 16.97c22.82-22.8 53.16-35.38 85.43-35.38 32.28 0 62.62 12.56 85.43 35.37l16.97-16.97c-27.35-27.35-63.7-42.4-102.4-42.4s-75.04 15.05-102.4 42.4zm44.83 44.82l16.97 16.97c10.85-10.86 25.27-16.83 40.6-16.83 15.35 0 29.77 5.97 40.62 16.82l16.97-16.98c-15.4-15.38-35.84-23.85-57.6-23.85-21.74 0-42.2 8.47-57.57 23.85z"/><circle cx="147.208" cy="237.299" r="14.001"/></g></svg>