<?xml version="1.0" encoding="iso-8859-1"?>
<!-- Generator: Adobe Illustrator 19.0.0, SVG Export Plug-In . SVG Version: 6.00 Build 0)  -->
<svg xmlns="http://www.w3.org/2000/svg" xmlns:xlink="http://www.w3.org/1999/xlink" version="1.1" id="Layer_1" x="0px" y="0px" viewBox="0 0 509.653 509.653" style="enable-background:new 0 0 509.653 509.653;" xml:space="preserve" width="512px" height="512px">
<g>
	<g>
		<circle cx="256" cy="414.663" r="42.667" fill="#ffffff"/>
	</g>
</g>
<g>
	<g>
		<path d="M191.602,281.305c-11.385,6.145-21.815,13.915-30.962,23.065h0.213c-9.143,9.136-16.905,19.557-23.04,30.933L166.4,363.89    c19.098-48.955,74.266-73.158,123.221-54.059c24.785,9.669,44.39,29.274,54.059,54.059l28.587-28.587    C337.289,270.503,256.402,246.327,191.602,281.305z" fill="#ffffff"/>
	</g>
</g>
<g>
	<g>
		<path d="M124.864,199.307c-11.255,7.885-21.773,16.773-31.424,26.556c-8.989,9.108-17.195,18.956-24.533,29.44l27.307,27.093    c58.135-87.835,176.468-111.912,264.304-53.777c21.354,14.133,39.643,32.423,53.776,53.777L441.6,255.09    C369.54,152.221,227.732,127.246,124.864,199.307z" fill="#ffffff"/>
	</g>
</g>
<g>
	<g>
		<path d="M57.31,120.23c-11.018,8.568-21.467,17.843-31.283,27.766c-9.242,9.073-17.933,18.69-26.027,28.8l27.307,27.307    c93.852-125.635,271.781-151.401,397.416-57.549c11.6,8.665,22.519,18.205,32.664,28.535c8.959,9.102,17.298,18.795,24.96,29.013    l27.307-27.307C400.362,36.265,197.841,10.939,57.31,120.23z" fill="#ffffff"/>
	</g>
</g>
<g>
</g>
<g>
</g>
<g>
</g>
<g>
</g>
<g>
</g>
<g>
</g>
<g>
</g>
<g>
</g>
<g>
</g>
<g>
</g>
<g>
</g>
<g>
</g>
<g>
</g>
<g>
</g>
<g>
</g>
</svg>
